# xmcd CD database file
#
# Track frame offsets:
#	150
#	16052
#	30095
#	44929
#	58670
#	71193
#	86547
#	100459
#	114929
#	130151
#	145363
#	155106
#	164737
#	180744
#	191475
#	204599
#	215979
#	229713
#	242638
#	255143
#	267488
#	280303
#	293438
#	306278
#
# Disc length: 4290 seconds
#
# Revision: 3
# Processed by: cddbd v1.5.2PL0 Copyright (c) Steve Scherf et al.
# Submitted via: Fey Extractor 
#
DISCID=6910c018
DTITLE=Muddy Waters - 1941-1950 - 1941-1950
DYEAR=2001
DGENRE=Blues
TTITLE0=Muddy Waters - 1941-1950 - Country Blues
TTITLE1=Muddy Waters - 1941-1950 - I Be' s Troubled
TTITLE2=Muddy Waters - 1941-1950 - Ramblin' Kid Blues
TTITLE3=Muddy Waters - 1941-1950 - Rosalie
TTITLE4=Muddy Waters - 1941-1950 - Joe Turner Blues
TTITLE5=Muddy Waters - 1941-1950 - Pearlie May Blues
TTITLE6=Muddy Waters - 1941-1950 - Take A Walk With Me
TTITLE7=Muddy Waters - 1941-1950 - Burr Clover Blues
TTITLE8=Muddy Waters - 1941-1950 - I Be Bound To Write To You
TTITLE9=Muddy Waters - 1941-1950 - You Gonna Miss Me When Im Gone
TTITLE10=Muddy Waters - 1941-1950 - You Got To Take Sick and Die Some Of These Days
TTITLE11=Muddy Waters - 1941-1950 - Why Dont You Live So God Can Use You
TTITLE12=Muddy Waters - 1941-1950 - Country Blues No. 2
TTITLE13=Muddy Waters - 1941-1950 - Mean Red Spider
TTITLE14=Muddy Waters - 1941-1950 - I'm Gonna Cut Your Head
TTITLE15=Muddy Waters - 1941-1950 - Atomic Bomb Blues
TTITLE16=Muddy Waters - 1941-1950 - Tomorrow Will Be Too Late
TTITLE17=Muddy Waters - 1941-1950 - Jitterbug Blues
TTITLE18=Muddy Waters - 1941-1950 - Hard Day Blues
TTITLE19=Muddy Waters - 1941-1950 - Buryin' Ground Blues
TTITLE20=Muddy Waters - 1941-1950 - Come To Me Baby
TTITLE21=Muddy Waters - 1941-1950 - You Can't Make The Grade
TTITLE22=Muddy Waters - 1941-1950 - Rollin' and Tumblin'  Part 1
TTITLE23=Muddy Waters - 1941-1950 - Rollin' and Tumblin'  Part 2
EXTD=YEAR: 2001
EXTT0=
EXTT1=
EXTT2=
EXTT3=
EXTT4=
EXTT5=
EXTT6=
EXTT7=
EXTT8=
EXTT9=
EXTT10=
EXTT11=
EXTT12=
EXTT13=
EXTT14=
EXTT15=
EXTT16=
EXTT17=
EXTT18=
EXTT19=
EXTT20=
EXTT21=
EXTT22=
EXTT23=
PLAYORDER=
